PathFileType	3	(X/Y/Z)	C:\Users\koon_\Desktop\
DataRate	CameraRate	NumFrames	NumMarkers	Units	OrigDataRate	OrigDataStartFrame	OrigNumFrames
100.0	100.0	9	27	mm	100.0	1126	3002	
Frame#	Time	GM:LFHD			GM:RFHD			GM:LBHD			GM:RBHD			GM:C7			GM:T10			GM:CLAV			GM:STRN			GM:RBAK			GM:LSHO			GM:LUPA			GM:LELB			GM:LFRA			GM:LWRA			GM:LWRB			GM:LFIN			GM:RSHO			GM:RUPA			GM:RELB			GM:RFRA			GM:RWRA			GM:RWRB			GM:RFIN			GM:LASI			GM:RASI			GM:LPSI			GM:RPSI			
		X1	Y1	Z1	X2	Y2	Z2	X3	Y3	Z3	X4	Y4	Z4	X5	Y5	Z5	X6	Y6	Z6	X7	Y7	Z7	X8	Y8	Z8	X9	Y9	Z9	X10	Y10	Z10	X11	Y11	Z11	X12	Y12	Z12	X13	Y13	Z13	X14	Y14	Z14	X15	Y15	Z15	X16	Y16	Z16	X17	Y17	Z17	X18	Y18	Z18	X19	Y19	Z19	X20	Y20	Z20	X21	Y21	Z21	X22	Y22	Z22	X23	Y23	Z23	X24	Y24	Z24	X25	Y25	Z25	X26	Y26	Z26	X27	Y27	Z27	
1126	11.25	408.30933	1414.9127	-22.837105	289.41675	1510.7911	-46.334957	423.46103	1401.0455	-154.70248	296.82788	1504.7026	-161.68126	247.2085	1352.4854	-228.40106	128.23792	1203.2395	-304.76666	222.04721	1275.4495	-78.411598	137.51492	1155.7363	-46.163948	102.65195	1334.8958	-281.30103	368.44571	1219.0237	-181.80252	389.14191	1101.9943	-191.72829	365.06854	905.67114	-264.60318	324.97916	807.00024	-160.49783	311.70892	742.52289	-130.19814	323.27124	707.62305	-185.61137	296.88199	654.18433	-106.27517	86.260681	1424.7545	-116.93805	-106.33199	1283.7904	-144.15137	-182.46945	1245.6548	-200.19965	-179.84741	1170.5498	-139.0527	-234.96452	1052.6686	-118.66916	-273.67847	1053.6493	-167.39758	-283.62744	978.38123	-107.54626	149.74677	891.67914	-86.38105	-133.75079	932.98145	-99.118202	79.727905	943.41882	-302.17087	-57.819679	946.07721	-302.56796
1127	11.26	405.65674	1418.6561	-22.793512	285.77023	1512.9784	-46.400337	420.98328	1404.7711	-154.59375	292.86908	1507.1744	-161.81662	245.396	1354.344	-228.2413	127.94283	1203.9521	-304.86951	220.814	1277.1415	-78.366608	137.21024	1156.5585	-46.287441	101.08553	1335.39	-281.36838	367.83759	1221.976	-181.53064	388.99792	1104.9341	-191.24637	365.51462	908.37384	-264.17215	325.48566	809.39563	-160.37695	312.4614	744.8385	-130.15143	324.09897	710.09802	-185.62181	297.91553	656.43512	-106.40876	83.684586	1425.1201	-117.09171	-107.69286	1282.4237	-144.18884	-183.55173	1243.6934	-199.90862	-180.53433	1168.7593	-138.7818	-234.76392	1050.6819	-117.87711	-273.48987	1051.1879	-166.86986	-282.98386	975.99554	-106.70954	150.42838	891.70398	-86.302353	-133.1748	932.76617	-99.096207	80.507187	943.4566	-302.05475	-57.006702	946.05438	-302.59769
1128	11.27	402.77567	1422.4929	-22.73167	281.83679	1515.5132	-46.56155	418.3898	1408.6273	-154.51563	289.48703	1509.4572	-161.77782	243.53403	1356.2637	-228.16982	127.56078	1204.6743	-304.91827	219.37297	1278.783	-78.317993	136.83621	1157.4413	-46.385284	99.395317	1335.847	-281.48303	367.17941	1225.032	-181.21875	388.96704	1107.9164	-190.92493	365.96051	911.18695	-263.71811	326.07877	811.97253	-160.12822	313.19073	747.31653	-129.97266	325.09839	712.71051	-185.51637	298.88556	658.76202	-106.43736	80.983139	1425.4194	-117.30058	-109.04681	1281.0233	-144.14369	-184.55919	1241.5886	-199.86195	-181.15756	1166.9174	-138.42238	-234.71693	1048.4967	-117.37698	-273.30911	1048.5865	-166.36679	-282.38489	973.58325	-105.94511	151.15154	891.69287	-86.213951	-132.5891	932.5611	-99.090073	81.316292	943.47034	-301.82297	-56.212692	946.01501	-302.67358
1129	11.28	399.7655	1426.5455	-22.749331	277.6713	1518.0054	-46.753639	415.58267	1412.6814	-154.48744	285.47388	1511.926	-161.9736	241.55875	1358.1787	-228.04642	127.12206	1205.295	-304.866	217.91223	1280.4722	-78.325653	136.37897	1158.2864	-46.472198	97.691055	1336.2737	-281.63242	366.42017	1228.1552	-180.79715	388.81909	1111.0552	-190.56262	366.40137	914.12634	-263.12717	326.74078	814.63654	-159.84196	313.94141	749.85822	-129.85432	326.16531	715.46307	-185.33141	299.97458	661.1778	-106.47404	78.171799	1425.7181	-117.58053	-110.41106	1279.5334	-144.12842	-185.63225	1239.3658	-199.87581	-181.7697	1164.9507	-138.06183	-234.58424	1046.2108	-116.84144	-273.10907	1045.9099	-165.8671	-281.77927	970.99982	-105.2623	151.99306	891.72266	-86.083115	-131.95401	932.33441	-98.976135	82.152222	943.58173	-301.82928	-55.409473	946.00586	-302.68375
1130	11.29	396.56778	1430.7417	-22.856247	273.43918	1520.5924	-47.007427	412.69687	1416.8704	-154.64624	281.37323	1514.4008	-162.16385	239.41957	1360.1963	-228.02664	126.65352	1206.0708	-305.15564	216.36728	1282.3086	-78.249008	136.02728	1159.2009	-46.518867	95.853798	1336.6387	-281.80396	365.60107	1231.4718	-180.487	388.35663	1114.2274	-190.21483	366.85217	917.14569	-262.58252	327.47388	817.42731	-159.41069	314.77298	752.46063	-129.62912	327.16959	718.24982	-185.15514	301.06537	663.73578	-106.40559	75.260796	1426.015	-117.92711	-111.8308	1277.9583	-144.16518	-186.90532	1237.1547	-199.66808	-182.56029	1162.9115	-137.94907	-234.44588	1043.8435	-116.24729	-272.84753	1043.0996	-165.35883	-281.16525	968.32556	-104.55692	152.68593	891.71625	-85.95919	-131.28313	932.07751	-98.871292	83.019722	943.63403	-301.65527	-54.658432	945.96759	-302.61652
1131	11.3	393.22095	1435.054	-22.952065	268.90582	1523.1826	-47.299664	409.56476	1421.1775	-154.70604	276.56714	1517.2214	-162.54434	237.22192	1362.2258	-228.14043	126.15351	1206.6459	-304.86545	214.7435	1284.188	-78.34549	135.63506	1160.1843	-46.519478	94.018089	1337.0364	-282.05835	364.74161	1234.8936	-180.26981	388.3483	1117.7019	-189.85272	367.34134	920.22858	-261.92883	328.06131	820.21368	-159.06938	315.65479	755.25604	-129.36098	328.22586	721.0611	-184.91328	302.30927	666.43903	-106.26276	72.20192	1426.2866	-118.30588	-113.38615	1276.2292	-144.36507	-187.9843	1234.673	-199.70358	-183.27872	1160.8019	-137.71475	-234.325	1041.3949	-115.76983	-272.59525	1040.2087	-164.93564	-280.43448	965.59967	-103.85659	153.4034	891.65363	-85.866226	-130.69662	931.83521	-98.77095	83.889191	943.67224	-301.42911	-53.816952	945.93713	-302.53482
1132	11.31	389.73352	1439.5381	-23.12553	264.21588	1525.9093	-47.553482	406.27206	1425.6067	-154.88097	272.39142	1519.6268	-162.73607	234.94136	1364.2433	-228.2274	125.52744	1206.8334	-303.23608	213.036	1286.0833	-78.307953	135.19803	1161.2456	-46.613377	92.062378	1337.3472	-282.34268	363.9245	1238.3929	-179.92935	388.29224	1121.1443	-189.52733	367.75781	923.45483	-261.28519	328.6507	823.07794	-158.69667	316.50958	758.05743	-128.94621	329.29242	723.96552	-184.63898	303.49582	669.17676	-106.10229	69.011139	1426.5472	-118.70102	-115.0642	1274.5219	-144.54051	-189.09627	1232.124	-199.8717	-184.06567	1158.5979	-137.45448	-234.15475	1038.8619	-115.16372	-272.33777	1037.1897	-164.49286	-279.74332	962.8894	-103.14902	154.3101	891.65137	-85.640465	-130.0336	931.54724	-98.622108	84.684135	943.70587	-301.18799	-52.918957	945.88593	-302.45251
1133	11.32	386.07562	1444.0636	-23.431112	259.35165	1528.6201	-47.876698	402.80463	1430.2885	-155.15703	267.54547	1522.2434	-162.9601	232.51593	1366.3141	-228.35252	125.02997	1207.9769	-305.2182	211.26457	1288.0979	-78.447105	134.70074	1162.3198	-46.825451	90.037254	1337.6295	-282.64523	362.90625	1242.0138	-179.72894	388.02863	1124.7319	-189.29204	368.14719	926.77008	-260.57245	329.33606	826.15515	-158.19006	317.2713	760.91138	-128.72035	330.41736	726.99579	-184.32005	304.76257	671.9566	-105.91295	65.763077	1426.8281	-119.21536	-116.62746	1272.8217	-144.76427	-190.20244	1229.4742	-199.93825	-184.79813	1156.2629	-137.36591	-234.01335	1036.2714	-114.70626	-272.0817	1034.1135	-164.09026	-279.09619	959.99994	-102.57349	155.11647	891.60004	-85.442238	-129.30074	931.31476	-98.343315	85.592537	943.73053	-300.89059	-52.03347	945.84155	-302.38126
1134	11.33	382.25232	1448.7477	-23.712675	254.46725	1531.1373	-48.613934	399.19806	1435.0105	-155.40065	262.54581	1524.9739	-163.44424	230.05438	1368.3718	-228.52635	124.37356	1208.1312	-303.22885	209.4612	1290.2056	-78.527222	134.12151	1163.7288	-47.470898	87.984344	1337.8464	-282.90878	361.86966	1245.6685	-179.58063	387.73633	1128.4329	-188.90111	368.54718	930.18079	-259.76736	330.29358	829.11084	-157.50516	318.22406	763.87994	-128.27014	331.54282	730.10431	-183.98286	306.02362	674.79968	-105.68976	62.395302	1427.0323	-119.84025	-118.21293	1270.9919	-144.99068	-191.33273	1226.9022	-200.08228	-185.48402	1153.9196	-137.21472	-233.85063	1033.5913	-114.27419	-271.82547	1031.0394	-163.78943	-278.45203	957.03198	-102.01419	155.96436	891.64203	-85.143402	-128.57533	931.08112	-98.148598	86.493904	943.7536	-300.70178	-51.140469	945.78937	-302.15982
